<svg id="visual" viewBox="0 0 960 540" width="960" height="540" xmlns="http://www.w3.org/2000/svg" xmlns:xlink="http://www.w3.org/1999/xlink" version="1.1"><rect x="0" y="0" width="960" height="540" fill="#ffffff"></rect><path d="M0 229L40 229.3C80 229.7 160 230.3 240 247.3C320 264.3 400 297.7 480 306.8C560 316 640 301 720 300.2C800 299.3 880 312.7 920 319.3L960 326L960 541L920 541C880 541 800 541 720 541C640 541 560 541 480 541C400 541 320 541 240 541C160 541 80 541 40 541L0 541Z" fill="#5b97c6"></path><path d="M0 363L40 357C80 351 160 339 240 327.8C320 316.7 400 306.3 480 314.2C560 322 640 348 720 355.2C800 362.3 880 350.7 920 344.8L960 339L960 541L920 541C880 541 800 541 720 541C640 541 560 541 480 541C400 541 320 541 240 541C160 541 80 541 40 541L0 541Z" fill="#3680b7"></path><path d="M0 376L40 376C80 376 160 376 240 374C320 372 400 368 480 373.2C560 378.3 640 392.7 720 406.2C800 419.7 880 432.3 920 438.7L960 445L960 541L920 541C880 541 800 541 720 541C640 541 560 541 480 541C400 541 320 541 240 541C160 541 80 541 40 541L0 541Z" fill="#196b9f"></path><path d="M0 468L40 476.7C80 485.3 160 502.7 240 499C320 495.3 400 470.7 480 462.7C560 454.7 640 463.3 720 476C800 488.7 880 505.3 920 513.7L960 522L960 541L920 541C880 541 800 541 720 541C640 541 560 541 480 541C400 541 320 541 240 541C160 541 80 541 40 541L0 541Z" fill="#135680"></path></svg>